<?xml version="1.0" encoding="UTF-8"?><svg id="Layer_2" xmlns="http://www.w3.org/2000/svg" viewBox="0 0 177.26 85.74"><defs><style>.cls-1{fill:#e3b545;}</style></defs><path class="cls-1" d="M158.28,23.31c-16.19-6.44-32.73-11.85-49.76-15.57-6.18-1.58-12.59-2.55-19.02-2.31v10.04c-.07.22-.24.36-.33.44,4.47,3.08,9.54,5.19,14.58,7.13,4.59,1.87,9.21,3.64,13.87,5.31-2.57.47-5.14.91-7.72,1.33-25.9,4.37-52.81,5.36-78.14-.92-3.33-.69-6.7-1.82-9.97-2.71-4.69-1.64-9.11-3.12-14.3-3.17L0,39.38c1.25,1.19,2.62,2.18,4.04,3.09,1.36.87,2.91,1.77,4.4,2.4,2.96,1.23,6.34,2.32,9.47,3.04,18.68,4.89,38.97,3.93,57.61,1.73,15.62-1.74,31.04-4.24,46.5-6.4-2.59,1.74-5.18,3.48-7.78,5.23-9.32,6.51-18.66,13.2-26.86,21.27-2.79,2.78-5.47,5.76-7.77,9.57,0,0,7.73,4.45,7.73,4.45,3.4-5.5,9.23-10.21,14.57-14.21,17.51-12.88,37.51-22.77,57.54-31.07l17.81-7.53-18.98-7.65Z"/></svg>