<?xml version="1.0" encoding="UTF-8"?><svg id="Layer_2" xmlns="http://www.w3.org/2000/svg" viewBox="0 0 1922.12 1081.24"><defs><style>.cls-1{fill:none;}.cls-2{fill:#e2b544;}</style></defs><path class="cls-1" d="M281.62,0c-2.38-.1-4.77-.16-7.17-.16H-.16v1081.24h1.52V0h280.26Z"/><path class="cls-2" d="M685.46,575.33s-18.1,19.24-13.97,34.58c4.13,15.34,36.73-24.73,13.97-34.58Z"/><path class="cls-2" d="M541.11,955.64c10.35,8.66,30.55-21.08,27.26-25.5-6.6-8.88-24.85,19.27-27.26,25.5Z"/><path class="cls-2" d="M640.16,826.07c-5.27,2.29-28.12,27.87-29.55,67.17,16.76-13.91,8.18-40.57,40.99-58.53,13.44-7.36-1.74-12.87-11.44-8.65Z"/><path class="cls-2" d="M1256.46,528.57s13.2-37.29.79-54.25-8.89,61.2-.79,54.25Z"/><path class="cls-2" d="M574.72,273.85c-1.32,6.09,5.45,17,8.83,12.28s-4.32-18.34-4.32-18.34l-4.51,6.06Z"/><path class="cls-2" d="M628.97,746.28c4.1-28.55,5.93-58.6,10.67-87.23,1.44-8.73.47-17.73,11.96-15.56-5.02,39.24-.54,79.92-18.53,116.1-5.23,4.98-4.43-10.98-4.09-13.3ZM583.56,286.14c-3.39,4.72-10.16-6.19-8.83-12.28l4.51-6.06s7.71,13.62,4.32,18.34ZM618.79,779.95l-12.28,22.38-4.08-1.05c3.02-7.94,5.36-22.24,16.36-21.33ZM510.51,123c35.33,32.89,92.84,114.93,99.55,163.33,3.27,23.6-31.69,20.64-18.25,5.7,21.82-24.25-32.99-61.14-43.77-102.29-7.15-27.28-31.86-46.1-51.4-66.5-.72-20.55,8.27-5.45,13.86-.25Z"/><path class="cls-2" d="M633.06,759.58c17.99-36.18,13.51-76.85,18.53-116.1-11.49-2.17-10.51,6.83-11.96,15.56-4.74,28.63-6.57,58.68-10.67,87.23-.33,2.32-1.14,18.29,4.09,13.3Z"/><path class="cls-2" d="M606.5,802.33l12.28-22.38c-11-.91-13.34,13.38-16.36,21.33l4.08,1.05Z"/><path class="cls-2" d="M548.05,189.75c10.78,41.15,65.59,78.04,43.77,102.29-13.44,14.93,21.52,17.9,18.25-5.7-6.72-48.4-64.22-130.45-99.55-163.33-5.59-5.2-14.59-20.3-13.86.25,19.54,20.39,44.26,39.21,51.4,66.5Z"/><path class="cls-2" d="M1296.85,343.96c-17.99,36.18-21.81,114.43-18.53,116.1,11.49,2.17,10.51-6.83,11.96-15.56,4.74-28.63-3.41-23.49.69-52.04.33-2.32,11.12-53.48,5.88-48.5Z"/><path class="cls-2" d="M1327.49,302.26l-4.08-1.05-12.28,22.38c11,.91,13.34-13.38,16.36-21.33Z"/><path class="cls-2" d="M1373.91,891.33c-14.09-23.84-43.72-50.26-44.25-108.32-.18-20.09-11.69-8.41-.73-31.21,18.33-38.13,3.41-73.18-2.22-76.26-5.17-2.83-17.81-.3-7.54,19.07,14.92,28.11,4.3,28.9-1.77,39.02-11.97,19.95-8.78,37.52-5.5,61.12,6.71,48.4,64.22,130.45,99.55,163.33,5.59,5.2,14.59,20.3,13.86-.25-19.54-20.39-37.05-42.22-51.4-66.5Z"/><path class="cls-2" d="M1430.21,141.04c6.6,8.88,30.34-30.36,32.75-36.6-10.35-8.66-36.04,32.17-32.75,36.6Z"/><path class="cls-2" d="M1256.77,550.21c-5.23,1.75-8.63,21.02-8.45,25.12.74,16.94,7.52,96.66,18.53,103.31,7.41-2.5.17-53.3-.73-59.56-1.03-7.19-3.84-66.82-9.36-68.87Z"/><path class="cls-2" d="M1352.91,900.64c-10.78-26.84-55.43-81.95-64.33-109.82-11.94-37.39,12.95-52.66,12.32-74.89-.41-14.5-12.47-20.57-17.2-45.71-4.72-25.14,32.37-16.41,21.73-41.24-10.64-24.83-2.17-39.2-9.02-43.42-6.85-4.21-3.45,32.12-4.28,41.65-6.7,2-14.32-57.63-22.82-85.38-13.16-42.97,15.25-38.19-.44-69.48-15.54-31.01,3.9-102.4,18.08-145.27,3.94-30.68,40.73-66.11,52.95-94.26,11.62-26.75,34.59-21.44,51.67-47.23,30.46-45.99,41.79-96.89,93.6-117.66,48.72-19.53,41.63-36.16,89.16-57.67C1590.68,2.87,1610.09,11.67,1641.58,0H281.62c87.34,3.64,167.91,72.34,202.52,85.56,35.56,13.58,85.35,89.77,84.91,94.88,10.78,26.84,30.34,51.81,39.23,79.68,11.94,37.39,12.15,82.8,12.77,105.03.41,14.5,32.59,29.62,32.59,29.62,18.7,8.89,41.92,53.53,21.97,51.21l-24.02-18.29c6.04,29.26,33.92,41.15,30.54,30.59,17.36,22.19-5.84,48.73,2.66,76.48,13.16,42.97-39.45,65.13-23.77,96.43,15.54,31.01-3.9,102.4-18.07,145.27-3.94,30.68-20.92,51.51-33.15,79.67-11.62,26.75-40.28,38.43-57.36,64.23-30.45,45.99-16.75,72.03-68.56,92.8-48.72,19.53-50.63,36.16-98.16,57.67-16.33,7.39-35.74-1.42-67.23,10.25H1.36v.16h1646.15c-90.08,0-174.13-72.14-209.68-85.72-35.56-13.58-85.35-89.77-84.91-94.88ZM541.11,955.64c2.41-6.23,20.66-34.39,27.26-25.5,3.29,4.43-16.9,34.16-27.26,25.5ZM651.6,834.72c-32.81,17.96-24.23,44.62-40.99,58.53,1.43-39.31,24.28-64.88,29.55-67.17,9.7-4.22,24.88,1.29,11.44,8.65ZM1257.25,474.32c12.41,16.96-.79,54.25-.79,54.25-8.1,6.96-11.61-71.21.79-54.25ZM671.5,609.92c-4.13-15.34,13.97-34.58,13.97-34.58,22.76,9.86-9.83,49.93-13.97,34.58ZM700.02,569.35c-7.44-7.77,4.92-54.67-3.17-53.37-8.09,1.29-6.67-7.08-1.68-20.09,4.99-13,12.04,41.77,12.77,58.71.18,4.1-.48,22.52-7.92,14.75ZM1266.86,678.64c-11.01-6.65-17.8-86.37-18.53-103.31-.18-4.1,3.22-23.37,8.45-25.12,5.52,2.04,8.33,61.67,9.36,68.87.89,6.26,8.14,57.07.73,59.56Z"/><path class="cls-2" d="M1342.73,813.29l4.51-6.06c1.32-6.09-5.45-17-8.84-12.28-3.39,4.72,4.33,18.34,4.33,18.34Z"/><path class="cls-2" d="M695.17,495.89c-4.99,13-6.4,21.38,1.68,20.09,8.09-1.29-4.27,45.61,3.17,53.37s8.1-10.64,7.92-14.75c-.74-16.94-7.79-71.71-12.77-58.71Z"/><path class="cls-2" d="M1370.08,869.72c10.22,11.41,11.21,25.21,20.91,20.99,5.27-2.29-39.65-38.11-38.22-77.42-16.76,13.91,1.05,38.27,17.32,56.43Z"/></svg>